<svg xmlns="http://www.w3.org/2000/svg" version="1.1" xmlns:xlink="http://www.w3.org/1999/xlink" xmlns:svgjs="http://svgjs.dev/svgjs" width="750" height="515" viewBox="0 0 410.40443115234376 312" class="svg-animations " style="background: rgb(246, 252, 255);"><svg viewBox="0 0 260.00006103515625 264.9913330078125" width="75" height="75" style="fill: rgb(77, 62, 252);" x="34.20036926269532" y="118.5"><svg xmlns="http://www.w3.org/2000/svg" viewBox="0 0 300.01 300"><path d="m235.71,105.33v95.01l-80.36,42.55v-95.03s80.36-42.52,80.36-42.52Zm-171.43,0l80.36,42.52v95.03l-80.36-42.55v-95.01Zm85.72-51.06l79.63,42.16-79.63,42.16-79.63-42.16,79.63-42.16Zm0-11.41c-1.01,0-1.93.34-2.51.61,0,0-87.3,46.28-90.51,47.94-.64.31-1.23.72-1.76,1.17-1.11,1.03-1.64,2.54-1.64,3.85v107.14c0,1.98,1.09,3.82,2.87,4.74l91.04,48.22c.79.31,1.56.59,2.51.59,1.09,0,1.9-.34,2.51-.59l91.07-48.22c1.76-.95,2.84-2.76,2.84-4.74v-107.14c-.03-1.48-.62-2.82-1.39-3.6-.47-.47-.95-.84-1.45-1.14l-91.07-48.21c-.87-.42-1.68-.62-2.51-.62h0Z"></path><path d="m42.86,0C22.57,0,10.88,9.35,5.41,18.72-.06,28.1,0,37.5,0,37.5v32.14c0,2.96,2.4,5.36,5.36,5.36s5.36-2.4,5.36-5.36v-32.14s.06-6.67,3.96-13.36c3.91-6.7,10.96-13.42,28.18-13.42h26.79c2.96,0,5.36-2.4,5.36-5.36,0-2.96-2.4-5.36-5.36-5.36h-26.79Z"></path><path d="m230.36,0c-2.96,0-5.36,2.4-5.36,5.36s2.4,5.36,5.36,5.36h26.79c17.21,0,24.27,6.72,28.18,13.42,3.91,6.69,3.96,13.36,3.96,13.36v32.14c0,2.96,2.4,5.36,5.36,5.36s5.36-2.4,5.36-5.36v-32.14s.06-9.4-5.41-18.78C289.12,9.35,277.43,0,257.14,0h-26.79Z"></path><path d="m5.36,225C2.4,225,0,227.4,0,230.36v32.14s-.06,9.4,5.41,18.78c5.46,9.37,17.16,18.72,37.44,18.72h26.79c2.96,0,5.36-2.4,5.36-5.36s-2.4-5.36-5.36-5.36h-26.79c-17.21,0-24.27-6.72-28.18-13.42-3.91-6.66-3.96-13.36-3.96-13.36v-32.14c0-2.96-2.4-5.36-5.36-5.36h0Z"></path><path d="m294.65,225c-2.96,0-5.36,2.4-5.36,5.36v32.14s-.06,6.7-3.96,13.36c-3.91,6.7-10.96,13.42-28.18,13.42h-26.79c-2.96,0-5.36,2.4-5.36,5.36,0,2.96,2.4,5.36,5.36,5.36h26.79c20.29,0,31.98-9.35,37.44-18.72,5.46-9.37,5.42-18.78,5.42-18.78v-32.14c0-2.96-2.4-5.36-5.36-5.36h0Z"></path></svg></svg><text fill="#4d3efc" font-family="Expletus Sans" font-size="38px" x="161.07340087890623" y="165.73068258745616"><tspan dy="0" x="161.07340087890623">FadelSeg</tspan></text><text fill="#8c83ed" font-family="Hind" font-size="19px" x="119.20036926269529" y="205.41686248779297"><tspan dy="0" x="119.20036926269529">Sistema de Seguros e Sinistros</tspan></text></svg>